<svg xmlns="http://www.w3.org/2000/svg" viewBox="0 0 512 512">
  <defs>
    <radialGradient id="space-grad" cx="20%" cy="20%" r="100%" fx="20%" fy="20%">
      <stop offset="0%" stop-color="#312e81" />
      <stop offset="50%" stop-color="#1e1b4b" />
      <stop offset="100%" stop-color="#020617" />
    </radialGradient>
    <filter id="node-glow" x="-100%" y="-100%" width="300%" height="300%">
      <feGaussianBlur stdDeviation="5" result="coloredBlur" />
      <feMerge>
        <feMergeNode in="coloredBlur" />
        <feMergeNode in="SourceGraphic" />
      </feMerge>
    </filter>
    <filter id="star-dim" x="-50%" y="-50%" width="200%" height="200%">
      <feGaussianBlur stdDeviation="1.5" />
    </filter>
  </defs>
  <rect width="512" height="512" rx="128" fill="url(#space-grad)" />
  <g fill="#ffffff" opacity="0.3" filter="url(#star-dim)">
    <circle cx="120" cy="100" r="2" />
    <circle cx="420" cy="80" r="3" />
    <circle cx="380" cy="400" r="2" />
    <circle cx="80" cy="420" r="2" />
    <circle cx="250" cy="60" r="1.5" />
    <circle cx="50" cy="250" r="2" />
    <circle cx="460" cy="280" r="1.5" />
  </g>
  <g transform="translate(256, 256)" stroke-linecap="round" stroke-linejoin="round">
    <g stroke="#ffffff" stroke-width="2" opacity="0.3" stroke-dasharray="6 4">
      <path d="M0 0 L0 -130" />
      <path d="M0 0 L112.6 65" />
      <path d="M0 0 L-112.6 65" />
    </g>
    <rect x="-10" y="-10" width="20" height="20" fill="#0e7490" opacity="0.6" filter="url(#node-glow)" />
    <g stroke="#ffffff" stroke-width="4" fill="none">
      <path d="M0 -130 L112.6 -65 L112.6 65 L0 130 L-112.6 65 L-112.6 -65 Z" />
      <path d="M0 0 L0 130" />
      <path d="M0 0 L112.6 -65" />
      <path d="M0 0 L-112.6 -65" />
    </g>
    <g fill="#06b6d4" stroke="none" filter="url(#node-glow)">
      <rect x="-12" y="-142" width="24" height="24" />
      <rect x="100.6" y="-77" width="24" height="24" />
      <rect x="-124.6" y="-77" width="24" height="24" />
      <rect x="-124.6" y="53" width="24" height="24" />
      <rect x="100.6" y="53" width="24" height="24" />
      <rect x="-12" y="118" width="24" height="24" />
    </g>
    <g filter="url(#node-glow)">
      <rect x="-16" y="-16" width="32" height="32" fill="#22d3ee" stroke="#ffffff" stroke-width="2" />
    </g>
  </g>
</svg>